<?xml version="1.0" ?><svg viewBox="0 0 60 60" xmlns="http://www.w3.org/2000/svg"><defs><style>.a{fill:#ffd301;}.b{fill:#ff4867;}.c{fill:#4f5564;}.d{fill:#25cec6;}.e{fill:#8de1de;}.f{fill:#454a57;}.g,.h{fill:none;stroke-miterlimit:10;}.g{stroke:#454a57;}.h{stroke:#404551;stroke-linecap:round;stroke-width:0.93541px;}.i{fill:#f2572d;}.j{fill:#a0e48d;}</style></defs><title/><circle class="a" cx="30" cy="30" r="30"/><path class="b" d="M57.04449,43a30,30,0,1,0-54.089,0Z"/><rect class="c" height="31" rx="4" ry="4" width="48" x="6" y="19"/><rect class="d" height="32" rx="2" ry="2" transform="translate(59.5 9.5) rotate(90)" width="25" x="12.5" y="18.5"/><rect class="e" height="28" rx="1" ry="1" transform="translate(59.5 9.5) rotate(90)" width="21" x="14.5" y="20.5"/><path class="f" d="M29.7876,19a5.49484,5.49484,0,0,0-10.5752,0Z"/><circle class="f" cx="15" cy="1" r="1"/><circle class="f" cx="34" cy="1" r="1"/><line class="g" x1="25" x2="15" y1="17" y2="1"/><line class="g" x1="24" x2="34" y1="17" y2="1"/><line class="h" x1="44" x2="51" y1="23" y2="23"/><line class="h" x1="44" x2="51" y1="25" y2="25"/><line class="h" x1="44" x2="51" y1="27" y2="27"/><circle class="i" cx="47.5" cy="35.5" r="1.5"/><circle class="j" cx="47.5" cy="40.5" r="1.5"/></svg>