<?xml version="1.0" ?><!DOCTYPE svg  PUBLIC '-//W3C//DTD SVG 1.1//EN'  'http://www.w3.org/Graphics/SVG/1.1/DTD/svg11.dtd'><svg enable-background="new 0 0 512 512" height="512px" id="WhatsApp_3_" version="1.1" viewBox="0 0 512 512" width="512px" xml:space="preserve" xmlns="http://www.w3.org/2000/svg" xmlns:xlink="http://www.w3.org/1999/xlink"><g id="bg_2_"><g><polygon fill="#29B200" points="0,0 0,512 355,512 512,354 512,0   "/></g></g><g id="WhatsApp"><g><path d="M333,285c0,0-26.325-12.515-29-14s-6.812-0.635-8,1s-11.108,14.663-12,16s-2.75,2.3-5,2    c-5.55-0.825-19.346-9.033-34-21c-9.613-7.851-18.904-23.052-20-25s-2.506-3.771,1-7c0.646-0.369,5.616-4.97,7-7s4.661-9.663,3-14    c-3.414-6.644-10.878-29.995-16-32c-5.157-2.019-13.849-1.665-16,0c-2.691,2.083-12.33,12.219-13,13    c-8.597,9.824-3.783,35.354-2,42s23.765,37.951,38,51s44.664,33.763,71,34s33-13,33-13s3.405-3.88,4-7s2-11.177,2-14    S333,285,333,285z M259,99c-84.5,0-153,68.5-153,153c0,28.943,8.04,56.009,22.004,79.088L101,413l85.762-26.102    C208.278,398.444,232.873,405,259,405c84.5,0,153-68.5,153-153S343.5,99,259,99z M259,380c-26.056,0-50.288-7.793-70.508-21.164    L140,375l16.142-46.81C140.347,306.902,131,280.544,131,252c0-70.692,57.308-128,128-128s128,57.308,128,128S329.692,380,259,380z    " fill="#FFFFFF"/></g></g><g id="Clip_Light_2_"><g><polygon fill="#39D709" points="355,354 355,512.02 512,354   "/></g></g><g id="Shadow_Clip_2_" opacity="0.102"><g><polygon points="198,512 355,512 355,353.98   "/></g></g></svg>